0
SECTION
2
HEADER
9
$INSUNITS
70
4
9
$ACADVER
1
AC1014
9
$HANDSEED
5
FFFF
0
ENDSEC
0
SECTION
2
TABLES
0
TABLE
2
VPORT
5
8
100
AcDbSymbolTable
0
ENDTAB
0
TABLE
2
LTYPE
5
5
100
AcDbSymbolTable
0
LTYPE
5
14
100
AcDbSymbolTableRecord
100
AcDbLinetypeTableRecord
2
BYBLOCK
70
0
0
LTYPE
5
15
100
AcDbSymbolTableRecord
100
AcDbLinetypeTableRecord
2
BYLAYER
70
0
0
ENDTAB
0
TABLE
2
LAYER
5
2
100
AcDbSymbolTable
70
2
0
LAYER
5
50
100
AcDbSymbolTableRecord
100
AcDbLayerTableRecord
2
0
70
0
6
CONTINUOUS
0
ENDTAB
0
TABLE
2
STYLE
5
3
100
AcDbSymbolTable
70
1
0
STYLE
5
11
100
AcDbSymbolTableRecord
100
AcDbTextStyleTableRecord
2
STANDARD
70
0
0
ENDTAB
0
TABLE
2
VIEW
5
6
100
AcDbSymbolTable
70
0
0
ENDTAB
0
TABLE
2
UCS
5
7
100
AcDbSymbolTable
70
0
0
ENDTAB
0
TABLE
2
APPID
5
9
100
AcDbSymbolTable
70
2
0
APPID
5
12
100
AcDbSymbolTableRecord
100
AcDbRegAppTableRecord
2
ACAD
70
0
0
ENDTAB
0
TABLE
2
DIMSTYLE
5
A
100
AcDbSymbolTable
70
1
0
ENDTAB
0
TABLE
2
BLOCK_RECORD
5
1
100
AcDbSymbolTable
70
1
0
BLOCK_RECORD
5
1F
100
AcDbSymbolTableRecord
100
AcDbBlockTableRecord
2
*MODEL_SPACE
0
BLOCK_RECORD
5
1B
100
AcDbSymbolTableRecord
100
AcDbBlockTableRecord
2
*PAPER_SPACE
0
ENDTAB
0
ENDSEC
0
SECTION
2
BLOCKS
0
BLOCK
5
20
100
AcDbEntity
100
AcDbBlockBegin
2
*MODEL_SPACE
0
ENDBLK
5
21
100
AcDbEntity
100
AcDbBlockEnd
0
BLOCK
5
1C
100
AcDbEntity
100
AcDbBlockBegin
2
*PAPER_SPACE
0
ENDBLK
5
1D
100
AcDbEntity
100
AcDbBlockEnd
0
ENDSEC
0
SECTION
2
ENTITIES
0
CIRCLE
5
100
100
AcDbEntity
8
0
100
AcDbCircle
10
-10.050000000000001
20
10.050000000000001
30
0
40
0.94999999999999973
210
0
220
-0
230
1
0
CIRCLE
5
101
100
AcDbEntity
8
0
100
AcDbCircle
10
10.050000000000001
20
-10.050000000000001
30
0
40
0.94999999999999973
210
0
220
-0
230
1
0
LWPOLYLINE
5
102
100
AcDbEntity
8
0
100
AcDbPolyline
90
4
70
1
43
0.0
10
-47.015241635866182
20
-52.265241635911003
10
-46.765214080394898
20
-52.265241635911053
42
0.99999999999999989
10
-46.765214080394969
20
-50.265241635911046
10
-47.015241635866268
20
-50.265241635911046
42
0.99999999999999989
0
CIRCLE
5
103
100
AcDbEntity
8
0
100
AcDbCircle
10
-35.000000506639623
20
10.500000193715113
30
0
40
1.0000000000000009
210
0
220
-0
230
1
0
LWPOLYLINE
5
104
100
AcDbEntity
8
0
100
AcDbPolyline
90
16
70
1
43
0.0
10
7.1974506478074929
20
8.4691176470588267
42
-0.28590046875990338
10
6.524385369760771
20
8.0499999999999972
10
-6.5243853697607719
20
8.0500000000000043
42
-0.28590046875990338
10
-7.1974506478074876
20
8.4691176470588267
42
1.3973269656555165
10
-8.4691176470588285
20
7.1974506478074876
42
-0.28590046875990294
10
-8.050000000000006
20
6.524385369760771
10
-8.0500000000000007
20
-6.5243853697607692
42
-0.28590046875989716
10
-8.4691176470588267
20
-7.1974506478074911
42
1.3973269656555185
10
-7.1974506478074876
20
-8.4691176470588232
42
-0.2859004687599016
10
-6.5243853697607701
20
-8.050000000000006
10
6.5243853697607692
20
-8.0500000000000043
42
-0.28590046875990049
10
7.1974506478074876
20
-8.4691176470588267
42
1.3973269656555189
10
8.4691176470588232
20
-7.1974506478074929
42
-0.28590046875990244
10
8.050000000000006
20
-6.524385369760771
10
8.0500000000000043
20
6.5243853697607737
42
-0.28590046875990122
10
8.4691176470588267
20
7.1974506478074893
42
1.397326965655517
0
CIRCLE
5
105
100
AcDbEntity
8
0
100
AcDbCircle
10
-51.265241636024541
20
-51.265241636024683
30
0
40
2.2500000000000053
210
0
220
-0
230
1
0
CIRCLE
5
106
100
AcDbEntity
8
0
100
AcDbCircle
10
-10.050000000000001
20
-10.050000000000001
30
0
40
1.0000000000000009
210
0
220
-0
230
1
0
LWPOLYLINE
5
107
100
AcDbEntity
8
0
100
AcDbPolyline
90
4
70
1
43
0.0
10
47.015241635866182
20
52.265241635911003
42
-0.99999999999999989
10
47.015241635866268
20
50.265241635911046
10
46.765214080394969
20
50.265241635911046
42
-0.99999999999999989
10
46.765214080394898
20
52.265241635911053
0
CIRCLE
5
108
100
AcDbEntity
8
0
100
AcDbCircle
10
10.050000000000001
20
10.050000000000001
30
0
40
0.94999999999999973
210
0
220
-0
230
1
0
CIRCLE
5
109
100
AcDbEntity
8
0
100
AcDbCircle
10
35.000000506639481
20
10.500000193715099
30
0
40
1.0000000000000009
210
0
220
-0
230
1
0
CIRCLE
5
110
100
AcDbEntity
8
0
100
AcDbCircle
10
35.000000506639481
20
-10.500000193715099
30
0
40
1.0000000000000009
210
0
220
-0
230
1
0
LWPOLYLINE
5
111
100
AcDbEntity
8
0
100
AcDbPolyline
90
4
70
1
43
0.0
10
50.26524163613815
20
55.765269191654319
42
-0.99999999999999989
10
52.265241636138178
20
55.765269191654248
10
52.265241636138178
20
55.515241636182964
42
-0.99999999999999989
10
50.265241636138171
20
55.515241636183035
0
ARC
5
112
100
AcDbEntity
8
0
100
AcDbCircle
10
51.265241635866289
20
-47.015241635911039
30
0
40
1.0000000000000053
210
0
220
0
230
1
100
AcDbArc
50
-180
51
0
0
LINE
5
113
100
AcDbEntity
8
0
100
AcDbLine
10
50.265241635866282
20
-47.015241635911039
30
0
11
50.265241635866118
21
-46.765214075703852
31
0
0
ARC
5
114
100
AcDbEntity
8
0
100
AcDbCircle
10
51.26524163586619
20
-46.765214080439996
30
0
40
1.0000000000000677
210
0
220
-0
230
1
100
AcDbArc
50
1.2074182697257333e-06
51
180
0
LINE
5
115
100
AcDbEntity
8
0
100
AcDbLine
10
52.265241635866253
20
-46.765214059366571
30
0
11
52.265241635866289
21
-47.015241635911039
31
0
0
LWPOLYLINE
5
116
100
AcDbEntity
8
0
100
AcDbPolyline
90
4
70
1
43
0.0
10
55.5152416361382
20
50.265241636182978
42
-0.99999999999999989
10
55.5152416361382
20
52.265241636182971
10
55.765269191609228
20
52.265241636183148
42
-0.99999999999999989
10
55.765269191609249
20
50.265241636182978
0
CIRCLE
5
117
100
AcDbEntity
8
0
100
AcDbCircle
10
-51.265241636024541
20
51.265241636024683
30
0
40
2.2500000000000053
210
0
220
-0
230
1
0
LWPOLYLINE
5
118
100
AcDbEntity
8
0
100
AcDbPolyline
90
4
70
1
43
0.0
10
-47.015241635866261
20
50.265241635911046
42
-0.99999999999999989
10
-47.01524163586619
20
52.265241635911003
10
-46.765214080394905
20
52.265241635911046
42
-0.99999999999999989
10
-46.765214080394976
20
50.265241635911039
0
ARC
5
119
100
AcDbEntity
8
0
100
AcDbCircle
10
51.265241635866197
20
46.765214080439996
30
0
40
1.0000000000000764
210
0
220
0
230
1
100
AcDbArc
50
180
51
359.99999829245274
0
LINE
5
120
100
AcDbEntity
8
0
100
AcDbLine
10
50.265241635866118
20
46.765214080439996
30
0
11
50.265241635866282
21
47.015241635911039
31
0
0
ARC
5
121
100
AcDbEntity
8
0
100
AcDbCircle
10
51.265241635866289
20
47.015241635911039
30
0
40
1.0000000000000053
210
0
220
0
230
1
100
AcDbArc
50
0
51
180
0
LINE
5
122
100
AcDbEntity
8
0
100
AcDbLine
10
52.265241635866289
20
47.015241635911039
30
0
11
52.265241635866275
21
46.765214050637674
31
0
0
CIRCLE
5
123
100
AcDbEntity
8
0
100
AcDbCircle
10
-35.00000050663953
20
-10.500000193715099
30
0
40
1.0000000000000009
210
0
220
-0
230
1
0
ARC
5
124
100
AcDbEntity
8
0
100
AcDbCircle
10
-51.265241635866197
20
-46.765214080439996
30
0
40
1.0000000000000764
210
0
220
0
230
1
100
AcDbArc
50
0
51
179.99999829245272
0
LINE
5
125
100
AcDbEntity
8
0
100
AcDbLine
10
-50.265241635866118
20
-46.765214080439996
30
0
11
-50.265241635866282
21
-47.015241635911039
31
0
0
ARC
5
126
100
AcDbEntity
8
0
100
AcDbCircle
10
-51.265241635866289
20
-47.015241635911039
30
0
40
1.0000000000000053
210
0
220
0
230
1
100
AcDbArc
50
-180
51
0
0
LINE
5
127
100
AcDbEntity
8
0
100
AcDbLine
10
-52.265241635866289
20
-47.015241635911039
30
0
11
-52.265241635866275
21
-46.765214050637674
31
0
0
LWPOLYLINE
5
128
100
AcDbEntity
8
0
100
AcDbPolyline
90
4
70
1
43
0.0
10
47.015241635866261
20
-50.265241635911046
10
46.765214080394976
20
-50.265241635911039
42
0.99999999999999989
10
46.765214080394905
20
-52.265241635911046
10
47.01524163586619
20
-52.265241635911003
42
0.99999999999999989
0
LWPOLYLINE
5
129
100
AcDbEntity
8
0
100
AcDbPolyline
90
4
70
1
43
0.0
10
-52.265241636138178
20
-55.515241636182964
10
-52.265241636138178
20
-55.765269191654248
42
0.99999999999999989
10
-50.26524163613815
20
-55.765269191654319
10
-50.265241636138171
20
-55.515241636183035
42
0.99999999999999989
0
LWPOLYLINE
5
130
100
AcDbEntity
8
0
100
AcDbPolyline
90
8
70
1
43
0.0
10
28.000000327825546
20
7.4999999999999956
42
-0.41421356237310114
10
29.500000327825546
20
6.0000000000000009
10
29.500000327825546
20
-6.0000000000000053
42
-0.41421356237309465
10
28.000000327825546
20
-7.5
10
16.000000327825539
20
-7.5000000000000018
42
-0.41421356237309465
10
14.500000327825546
20
-6.0000000000000009
10
14.500000327825546
20
6.0000000000000053
42
-0.41421356237309398
10
16.000000327825546
20
7.5000000000000044
0
LWPOLYLINE
5
131
100
AcDbEntity
8
0
100
AcDbPolyline
90
4
70
1
43
0.0
10
-50.265241636138178
20
55.515241636183042
10
-50.265241636138157
20
55.765269191654319
42
0.99999999999999989
10
-52.265241636138171
20
55.765269191654269
10
-52.265241636138171
20
55.515241636182971
42
0.99999999999999989
0
CIRCLE
5
132
100
AcDbEntity
8
0
100
AcDbCircle
10
51.265241636024541
20
-51.265241636024683
30
0
40
2.2500000000000053
210
0
220
-0
230
1
0
LWPOLYLINE
5
133
100
AcDbEntity
8
0
100
AcDbPolyline
90
18
70
1
43
0.0
10
-14.452831911560375
20
6.7315264655835048
42
-0.096666729496293569
10
-15.147658039923666
20
8.0972896983752634
42
0.33497555523839156
10
-18.994209133804976
20
11.000000000000005
10
-19.03137331652518
20
11.000000000000005
42
0.1425959565361298
10
-21.178318821189887
20
10.375
42
-0.14259595653612828
10
-23.325264325854601
20
9.75
10
-30.971306261331701
20
9.7499999999999982
42
0.41421356237309265
10
-32.971306261331691
20
7.7500000000000036
10
-32.971306261331698
20
-7.7499999999999991
42
0.41421356237310109
10
-30.971306261331691
20
-9.7500000000000036
10
-23.325264325854587
20
-9.7500000000000018
42
-0.14259595653613044
10
-21.178318821189887
20
-10.375
42
0.14259595653612997
10
-19.031373316525169
20
-10.999999999999998
10
-18.994209133804979
20
-10.999999999999998
42
0.33497555523839534
10
-15.147658039923666
20
-8.0972896983752545
42
-0.096666729496291209
10
-14.452831911560375
20
-6.7315264655835003
42
0.1673757979937141
10
-14.028694394319388
20
-5.4999999999999973
10
-14.028694394319386
20
5.4999999999999991
42
0.16737579799371194
0
LWPOLYLINE
5
134
100
AcDbEntity
8
0
100
AcDbPolyline
90
4
70
1
43
0.0
10
-55.765269191609228
20
-52.265241636183148
10
-55.5152416361382
20
-52.265241636182971
42
0.99999999999999989
10
-55.5152416361382
20
-50.265241636182978
10
-55.765269191609249
20
-50.265241636182978
42
0.99999999999999989
0
LWPOLYLINE
5
135
100
AcDbEntity
8
0
100
AcDbPolyline
90
4
70
1
43
0.0
10
52.265241636138171
20
-55.765269191654269
10
52.265241636138171
20
-55.515241636182971
42
0.99999999999999989
10
50.265241636138178
20
-55.515241636183042
10
50.265241636138157
20
-55.765269191654319
42
0.99999999999999989
0
CIRCLE
5
136
100
AcDbEntity
8
0
100
AcDbCircle
10
51.265241636024541
20
51.265241636024683
30
0
40
2.2500000000000053
210
0
220
-0
230
1
0
LWPOLYLINE
5
137
100
AcDbEntity
8
0
100
AcDbPolyline
90
4
70
1
43
0.0
10
-50.265241635866104
20
46.765214080439989
42
-0.99999998946328783
10
-52.265241635866253
20
46.765214059366578
10
-52.265241635866289
20
47.015241635911039
42
-0.99999999999999989
10
-50.265241635866282
20
47.015241635911039
0
LWPOLYLINE
5
138
100
AcDbEntity
8
0
100
AcDbPolyline
90
4
70
1
43
0.0
10
55.5152416361382
20
-52.265241636182971
42
-0.99999999999999989
10
55.5152416361382
20
-50.265241636182978
10
55.765269191609249
20
-50.265241636182978
42
-0.99999999999999989
10
55.765269191609228
20
-52.265241636183148
0
LWPOLYLINE
5
139
100
AcDbEntity
8
0
100
AcDbPolyline
90
4
70
1
43
0.0
10
-55.765269191609249
20
50.265241636182978
42
-0.99999999999999989
10
-55.765269191609228
20
52.265241636183148
10
-55.5152416361382
20
52.265241636182971
42
-0.99999999999999989
10
-55.5152416361382
20
50.265241636182978
0
LWPOLYLINE
5
140
100
AcDbEntity
8
0
100
AcDbPolyline
90
154
70
1
43
0.0
10
-25.692388349140248
20
-14.000000193715096
10
-35.000000000000036
20
-14.000000193715106
42
-0.0042785480250376153
10
-35.042783130633012
20
-13.999634087655588
42
-0.34853068208936633
10
-37.842393920684543
20
-11.710530562293995
42
-0.033946451557200982
10
-38.932979983418811
20
-4.3342881574615824
42
-0.41177131069535283
10
-38.271359468769681
20
-3.5524484007802504
10
-37.760206050593467
20
-3.5077282713673186
42
0.40385955955198205
10
-37.097296809909331
20
-2.7455796486207036
42
-0.025899154646966443
10
-37.097296809909054
20
2.745579507737463
42
0.40385955955205111
10
-37.760206050593297
20
3.507728130484653
10
-38.271359468769511
20
3.5524482598973703
42
-0.41177131069519757
10
-38.932979983418427
20
4.3342880165812776
42
-0.033946451557167301
10
-37.8423939206846
20
11.710530421406329
42
-0.34853277482419376
10
-35.042761418942213
20
13.999634265457654
42
-0.0042763764984576061
10
-35.000000000000007
20
13.999999999999995
10
-25.692388155425029
20
13.999999999999995
42
0.66817863791929599
10
-23.92462120245866
20
18.267766952966362
10
-44.364328893212992
20
38.707474643721
42
0.13216677640598354
10
-53.089239361610261
20
43.819321289252699
42
0.025018618837989857
10
-54.065872163085146
20
44.034787947906111
42
-0.099434896966862724
10
-54.801578871372115
20
44.31620012335685
42
-0.25727167498597625
10
-56.171971328321895
20
46.80323633049224
10
-56.175753611821179
20
47.801762839029408
42
0.11737104688017776
10
-56.330231973140258
20
48.440031600442943
42
0.28190029638585773
10
-57.82327565643152
20
49.355676255259468
10
-58.586733920899903
20
49.356068914053949
42
-0.30869785192992327
10
-60.566727572557191
20
50.708763486965424
42
-0.18864591686077498
10
-60.565553484887715
20
54.669565401558103
42
-0.3087697915051818
10
-58.584199420054865
20
56.021085773363865
10
-56.542645453235671
20
56.020389083721724
42
0.41520388802395275
10
-56.034607509558683
20
56.529799306296944
10
-56.04081126115301
20
58.571343966175263
42
-0.30876979150518669
10
-54.694640482537977
20
60.556336530503607
42
-0.18864591686077486
10
-50.733856145314178
20
60.568194824026726
42
-0.30869785192992233
10
-49.375825487446932
20
58.591857251525532
10
-49.373373411636123
20
57.8284028238809
42
0.28190029638585762
10
-48.453704622797424
20
56.337834511811323
42
0.11737104688016821
10
-47.815021480237341
20
56.185078433955873
10
-46.816488401903811
20
56.183989676102826
42
-0.25727167498597936
10
-44.325764627860657
20
54.820310951811933
42
-0.099434896966846126
10
-44.04236891725666
20
54.085366025765353
42
0.025018618837985687
10
-43.824268588615311
20
53.109317995925387
42
0.13216677640598579
10
-38.688905211972212
20
44.398228408576713
10
-28.590147377730617
20
34.247001627223156
10
-15.909902576697261
20
21.56675682618971
42
0.41421356237309459
10
15.909902576697377
20
21.566756826189646
10
28.59014737773056
20
34.247001627222801
10
38.688905211972212
20
44.398228408576713
42
0.13216677640598556
10
43.824268588615325
20
53.109317995925437
42
0.025018618837986801
10
44.042368917256638
20
54.08536602576536
42
-0.099434896966850608
10
44.325764627860664
20
54.820310951811955
42
-0.2572716749859727
10
46.816488401903811
20
56.183989676102854
10
47.815021480237341
20
56.185078433955866
42
0.11737104688018957
10
48.453704622797396
20
56.337834511811344
42
0.28190029638585568
10
49.373373411636123
20
57.8284028238809
10
49.375825487446889
20
58.591857251525532
42
-0.30869785192992455
10
50.733856145314178
20
60.568194824026726
42
-0.18864591686076809
10
54.69464048253797
20
60.556336530503607
42
-0.30876979150517808
10
56.040811261152967
20
58.571343966175263
10
56.034607509558683
20
56.529799306296944
42
0.41520388802396813
10
56.542645453235671
20
56.020389083721717
10
58.584199420054865
20
56.021085773363851
42
-0.30876979150518996
10
60.565553484887708
20
54.669565401558089
42
-0.18864591686077326
10
60.566727572557177
20
50.708763486965424
42
-0.30869785192991706
10
58.586733920899903
20
49.356068914053921
10
57.82327565643152
20
49.355676255259453
42
0.28190029638585773
10
56.330231973140258
20
48.440031600442943
42
0.11737104688017776
10
56.175753611821179
20
47.801762839029408
10
56.171971328321895
20
46.80323633049224
42
-0.25727167498597853
10
54.801578871372115
20
44.316200123356808
42
-0.099434896966863834
10
54.065872163085146
20
44.034787947906096
42
0.025018618837985687
10
53.089239361610261
20
43.819321289252684
42
0.13216677640598518
10
44.364328893212985
20
38.707474643721
10
22.924621202458802
20
17.267766952966362
42
0.66817863791929855
10
24.692388155425174
20
13
10
35
20
13.000000000000007
42
-0.41421356237309531
10
37.499999999999993
20
10.500000000000009
10
37.5
20
8.426707758010286
42
-0.21022953987318996
10
37.157052958786267
20
7.6865170476503852
42
0.30861528587758097
10
36.875004417266076
20
6.5801620115637611
10
37.284339738849098
20
5.4555224585286926
42
-0.084882181658254049
10
37.5
20
4.2684059460556956
10
37.500000000000014
20
4.1928825038272635
42
-0.36305921403631092
10
35.804993876144891
20
2.2219727059228234
42
0.054602442394532019
10
34.392735227970363
20
1.8042933558374079
42
0.52382761285104529
10
34.392735219844859
20
-1.8042935439242069
42
0.055503645998346333
10
35.826804064038285
20
-2.2257045765571286
42
-0.35997189600282209
10
37.5
20
-4.1928826975286793
10
37.5
20
-4.2684061397988753
42
-0.084882181656262157
10
37.284339738849454
20
-5.4555226522436806
10
36.875004417266368
20
-6.5801622052788478
42
0.30861528587759945
10
37.15705295878665
20
-7.6865172413654914
42
-0.21022953986873841
10
37.5
20
-8.4267079517082895
10
37.5
20
-10.500000193715094
42
-0.41421356237309737
10
34.999999999999993
20
-13.000000193715094
10
24.692388349140231
20
-13.000000193715096
42
0.66817863791929821
10
22.924621396173855
20
-17.267767146681464
10
44.364328893212992
20
-38.707474643721
42
0.13216677640598354
10
53.089239361610261
20
-43.819321289252699
42
0.025018618837989857
10
54.065872163085146
20
-44.034787947906118
42
-0.099434896966849373
10
54.801578871372136
20
-44.316200123356857
42
-0.25727167498597164
10
56.171971328321895
20
-46.80323633049224
10
56.175753611821179
20
-47.801762839029408
42
0.11737104688017776
10
56.330231973140258
20
-48.440031600442943
42
0.28190029638585773
10
57.82327565643152
20
-49.355676255259468
10
58.586733920899903
20
-49.356068914053949
42
-0.30869785192992327
10
60.566727572557177
20
-50.708763486965424
42
-0.18864591686077523
10
60.565553484887701
20
-54.669565401558103
42
-0.30876979150518025
10
58.584199420054865
20
-56.021085773363865
10
56.542645453235671
20
-56.020389083721724
42
0.41520388802395275
10
56.034607509558683
20
-56.529799306296944
10
56.04081126115301
20
-58.571343966175263
42
-0.30876979150518669
10
54.69464048253797
20
-60.556336530503607
42
-0.18864591686077464
10
50.733856145314178
20
-60.568194824026733
42
-0.30869785192992383
10
49.375825487446924
20
-58.591857251525532
10
49.373373411636123
20
-57.8284028238809
42
0.28190029638585762
10
48.453704622797424
20
-56.337834511811323
42
0.11737104688016821
10
47.815021480237341
20
-56.185078433955873
10
46.816488401903811
20
-56.183989676102826
42
-0.25727167498597936
10
44.325764627860657
20
-54.820310951811933
42
-0.099434896966876726
10
44.04236891725666
20
-54.085366025765353
42
0.025018618837985687
10
43.824268588615311
20
-53.109317995925387
42
0.13216677640598579
10
38.688905211972212
20
-44.398228408576713
10
28.590147377730236
20
-34.247001627222573
10
15.909902576697343
20
-21.56675682618971
42
0.41421356237309576
10
-15.909902576697339
20
-21.566756826189671
10
-28.590147377730595
20
-34.247001627222872
10
-38.688905211972212
20
-44.398228408576713
42
0.13216677640598556
10
-43.824268588615325
20
-53.109317995925437
42
0.025018618837986801
10
-44.042368917256638
20
-54.08536602576536
42
-0.099434896966850608
10
-44.325764627860664
20
-54.820310951811955
42
-0.2572716749859727
10
-46.816488401903811
20
-56.183989676102854
10
-47.815021480237341
20
-56.185078433955866
42
0.11737104688018957
10
-48.453704622797396
20
-56.337834511811344
42
0.28190029638585568
10
-49.373373411636123
20
-57.8284028238809
10
-49.375825487446889
20
-58.591857251525532
42
-0.30869785192992455
10
-50.733856145314178
20
-60.568194824026726
42
-0.18864591686076809
10
-54.69464048253797
20
-60.556336530503607
42
-0.30876979150517808
10
-56.040811261152967
20
-58.571343966175263
10
-56.034607509558683
20
-56.529799306296944
42
0.41520388802396813
10
-56.542645453235671
20
-56.020389083721717
10
-58.584199420054865
20
-56.021085773363865
42
-0.30876979150518885
10
-60.565553484887701
20
-54.669565401558096
42
-0.18864591686077084
10
-60.566727572557177
20
-50.708763486965424
42
-0.30869785192991706
10
-58.586733920899903
20
-49.356068914053921
10
-57.82327565643152
20
-49.355676255259453
42
0.28190029638585773
10
-56.330231973140258
20
-48.440031600442943
42
0.11737104688017776
10
-56.175753611821179
20
-47.801762839029408
10
-56.171971328321895
20
-46.80323633049224
42
-0.25727167498597853
10
-54.801578871372115
20
-44.316200123356808
42
-0.099434896966863834
10
-54.065872163085146
20
-44.034787947906096
42
0.025018618837985687
10
-53.089239361610261
20
-43.819321289252684
42
0.13216677640598415
10
-44.364328893212985
20
-38.707474643720992
10
-23.92462139617389
20
-18.267767146681461
42
0.66817863791929988
0
ENDSEC
0
SECTION
2
OBJECTS
0
DICTIONARY
5
C
100
AcDbDictionary
3
ACAD_GROUP
350
D
3
ACAD_MLINESTYLE
350
17
0
DICTIONARY
5
D
100
AcDbDictionary
0
DICTIONARY
5
1A
330
C
100
AcDbDictionary
0
DICTIONARY
5
17
100
AcDbDictionary
0
ENDSEC
0
EOF
