0
SECTION
2
HEADER
9
$INSUNITS
70
4
9
$ACADVER
1
AC1014
9
$HANDSEED
5
FFFF
0
ENDSEC
0
SECTION
2
TABLES
0
TABLE
2
VPORT
5
8
100
AcDbSymbolTable
0
ENDTAB
0
TABLE
2
LTYPE
5
5
100
AcDbSymbolTable
0
LTYPE
5
14
100
AcDbSymbolTableRecord
100
AcDbLinetypeTableRecord
2
BYBLOCK
70
0
0
LTYPE
5
15
100
AcDbSymbolTableRecord
100
AcDbLinetypeTableRecord
2
BYLAYER
70
0
0
ENDTAB
0
TABLE
2
LAYER
5
2
100
AcDbSymbolTable
70
2
0
LAYER
5
50
100
AcDbSymbolTableRecord
100
AcDbLayerTableRecord
2
0
70
0
6
CONTINUOUS
0
ENDTAB
0
TABLE
2
STYLE
5
3
100
AcDbSymbolTable
70
1
0
STYLE
5
11
100
AcDbSymbolTableRecord
100
AcDbTextStyleTableRecord
2
STANDARD
70
0
0
ENDTAB
0
TABLE
2
VIEW
5
6
100
AcDbSymbolTable
70
0
0
ENDTAB
0
TABLE
2
UCS
5
7
100
AcDbSymbolTable
70
0
0
ENDTAB
0
TABLE
2
APPID
5
9
100
AcDbSymbolTable
70
2
0
APPID
5
12
100
AcDbSymbolTableRecord
100
AcDbRegAppTableRecord
2
ACAD
70
0
0
ENDTAB
0
TABLE
2
DIMSTYLE
5
A
100
AcDbSymbolTable
70
1
0
ENDTAB
0
TABLE
2
BLOCK_RECORD
5
1
100
AcDbSymbolTable
70
1
0
BLOCK_RECORD
5
1F
100
AcDbSymbolTableRecord
100
AcDbBlockTableRecord
2
*MODEL_SPACE
0
BLOCK_RECORD
5
1B
100
AcDbSymbolTableRecord
100
AcDbBlockTableRecord
2
*PAPER_SPACE
0
ENDTAB
0
ENDSEC
0
SECTION
2
BLOCKS
0
BLOCK
5
20
100
AcDbEntity
100
AcDbBlockBegin
2
*MODEL_SPACE
0
ENDBLK
5
21
100
AcDbEntity
100
AcDbBlockEnd
0
BLOCK
5
1C
100
AcDbEntity
100
AcDbBlockBegin
2
*PAPER_SPACE
0
ENDBLK
5
1D
100
AcDbEntity
100
AcDbBlockEnd
0
ENDSEC
0
SECTION
2
ENTITIES
0
LWPOLYLINE
5
100
100
AcDbEntity
8
0
100
AcDbPolyline
90
14
70
1
43
0.0
10
1.5358983956162331
20
5.9999999999999982
10
-10.5
20
5.9999999999999982
42
0.41421356237309509
10
-13
20
3.4999999999999987
10
-13
20
-3.4999999999999987
42
0.41421356237309509
10
-10.5
20
-5.9999999999999982
10
1.5358983956162326
20
-5.9999999999999982
42
0.19626156038429218
10
3.2855338718598088
20
-5.2857143389327188
42
-0.19626156038429032
10
3.985388062357238
20
-5.000000074505806
10
10.000000327825544
20
-5.000000074505806
42
0.4142135623730952
10
11.000000342726706
20
-4.0000000596046448
10
11.000000342726706
20
4.0000000596046448
42
0.41421356237309598
10
10.000000327825543
20
5.000000074505806
10
3.9853880623572375
20
5.0000000745058051
42
-0.19626156038429043
10
3.2855338718598084
20
5.2857143389327179
42
0.19626156038429235
0
LWPOLYLINE
5
101
100
AcDbEntity
8
0
100
AcDbPolyline
90
4
70
1
43
0.0
10
24.5
20
-9.0000001490116119
10
-8.6378310522592621
20
-9.0000001490116119
42
0.99999999999999989
10
-8.6378310522592638
20
-11.000000149011564
10
24.5
20
-11.000000149011612
42
0.99999999999999989
0
LWPOLYLINE
5
102
100
AcDbEntity
8
0
100
AcDbPolyline
90
4
70
1
43
0.0
10
-8.6378310522592372
20
9.0000001490116155
10
24.5
20
9.0000001490116119
42
0.99999999999999989
10
24.5
20
11.000000149011612
10
-8.637831052259239
20
11.000000149011569
42
0.99999999999999989
0
LWPOLYLINE
5
103
100
AcDbEntity
8
0
100
AcDbPolyline
90
4
70
1
43
0.0
10
20.000000342726707
20
-4.0000000596046448
10
20.000000342726707
20
4.0000000596046448
42
0.99999999999999989
10
18.000000312924385
20
4.0000000596046448
10
18.000000312924385
20
-4.0000000596046448
42
0.99999999999999989
0
LWPOLYLINE
5
104
100
AcDbEntity
8
0
100
AcDbPolyline
90
4
70
1
43
0.0
10
17.000000342726707
20
-4.0000000596046448
10
17.000000342726707
20
4.0000000596046448
42
0.99999999999999989
10
15.000000312924385
20
4.0000000596046448
10
15.000000312924385
20
-4.0000000596046448
42
0.99999999999999989
0
LWPOLYLINE
5
105
100
AcDbEntity
8
0
100
AcDbPolyline
90
4
70
1
43
0.0
10
21.000000312924385
20
4.0000000596046448
10
21.000000312924385
20
-4.0000000596046448
42
0.99999999999999989
10
23.000000342726707
20
-4.0000000596046448
10
23.000000342726707
20
4.0000000596046448
42
0.99999999999999989
0
CIRCLE
5
106
100
AcDbEntity
8
0
100
AcDbCircle
10
-35.000000506639616
20
-10.50000019371511
30
0
40
1.0000000000000009
210
0
220
-0
230
1
0
CIRCLE
5
107
100
AcDbEntity
8
0
100
AcDbCircle
10
35.000000506639481
20
10.500000193715099
30
0
40
1.0000000000000009
210
0
220
-0
230
1
0
CIRCLE
5
108
100
AcDbEntity
8
0
100
AcDbCircle
10
-35.000000506639537
20
10.500000193715099
30
0
40
1.0000000000000009
210
0
220
-0
230
1
0
CIRCLE
5
109
100
AcDbEntity
8
0
100
AcDbCircle
10
35.000000506639481
20
-10.500000193715099
30
0
40
1.0000000000000009
210
0
220
-0
230
1
0
CIRCLE
5
110
100
AcDbEntity
8
0
100
AcDbCircle
10
39.000000521540642
20
0
30
0
40
1.9999999999999973
210
0
220
0
230
1
0
ARC
5
111
100
AcDbEntity
8
0
100
AcDbCircle
10
40.000000566244118
20
1.4653460687455544
30
0
40
2.0000000000000018
210
0
220
-0
230
1
100
AcDbArc
50
0
51
75.000000000000071
0
LINE
5
112
100
AcDbEntity
8
0
100
AcDbLine
10
40.517638656449158
20
3.397197721323693
30
0
11
39.352952387243697
21
3.7092744665929156
31
0
0
ARC
5
113
100
AcDbEntity
8
0
100
AcDbCircle
10
40
20
6.1240890323155845
30
0
40
2.5
210
0
220
0
230
1
100
AcDbArc
50
180
51
254.99999999999997
0
LINE
5
114
100
AcDbEntity
8
0
100
AcDbLine
10
37.5
20
6.1240890323155845
30
0
11
37.5
21
10.500000193715096
31
0
0
ARC
5
115
100
AcDbEntity
8
0
100
AcDbCircle
10
35
20
10.500000193715099
30
0
40
2.5
210
0
220
0
230
1
100
AcDbArc
50
0
51
90
0
LINE
5
116
100
AcDbEntity
8
0
100
AcDbLine
10
35
20
13.000000193715099
30
0
11
-35
21
13.000000193715096
31
0
0
ARC
5
117
100
AcDbEntity
8
0
100
AcDbCircle
10
-35
20
10.500000193715099
30
0
40
2.4999999999999956
210
0
220
-0
230
1
100
AcDbArc
50
90
51
180
0
LINE
5
118
100
AcDbEntity
8
0
100
AcDbLine
10
-37.499999999999993
20
10.500000193715096
30
0
11
-37.5
21
9.1332498480364865
31
0
0
LINE
5
119
100
AcDbEntity
8
0
100
AcDbLine
10
-37.5
20
9.1332498480364865
30
0
11
-35.125398065801235
21
7.4150846477860766
31
0
0
ARC
5
120
100
AcDbEntity
8
0
100
AcDbCircle
10
-34.000000506639481
20
1.5543122344752192e-14
30
0
40
7.499999999999984
210
0
220
0
230
1
100
AcDbArc
50
90.000000000000057
51
98.629998454751643
0
LINE
5
121
100
AcDbEntity
8
0
100
AcDbLine
10
-34.000000506639488
20
7.5
30
0
11
-26.000000387430191
21
7.5
31
0
0
ARC
5
122
100
AcDbEntity
8
0
100
AcDbCircle
10
-26.000000387430191
20
0
30
0
40
7.5
210
0
220
0
230
1
100
AcDbArc
50
-90
51
90
0
LINE
5
123
100
AcDbEntity
8
0
100
AcDbLine
10
-26.000000387430191
20
-7.5
30
0
11
-34.000000506639481
21
-7.5
31
0
0
ARC
5
124
100
AcDbEntity
8
0
100
AcDbCircle
10
-34.000000506639481
20
1.5543122344752192e-14
30
0
40
7.500000000000016
210
0
220
0
230
1
100
AcDbArc
50
261.37000154524844
51
270
0
LINE
5
125
100
AcDbEntity
8
0
100
AcDbLine
10
-35.125398065801228
20
-7.4150846477860775
30
0
11
-37.5
21
-9.1332498480364883
31
0
0
LINE
5
126
100
AcDbEntity
8
0
100
AcDbLine
10
-37.5
20
-9.1332498480364883
30
0
11
-37.5
21
-10.499999999999998
31
0
0
ARC
5
127
100
AcDbEntity
8
0
100
AcDbCircle
10
-35
20
-10.500000000000004
30
0
40
2.5
210
0
220
0
230
1
100
AcDbArc
50
180
51
270
0
LINE
5
128
100
AcDbEntity
8
0
100
AcDbLine
10
-35
20
-13.000000000000004
30
0
11
35
21
-13.000000193715096
31
0
0
ARC
5
129
100
AcDbEntity
8
0
100
AcDbCircle
10
35
20
-10.500000000000004
30
0
40
2.5000001937150929
210
0
220
0
230
1
100
AcDbArc
50
-90
51
0
0
LINE
5
130
100
AcDbEntity
8
0
100
AcDbLine
10
37.499999999999993
20
-10.499999999999998
30
0
11
37.5
21
-6.1240890323155917
31
0
0
ARC
5
131
100
AcDbEntity
8
0
100
AcDbCircle
10
40
20
-6.1240890323155917
30
0
40
2.5
210
0
220
0
230
1
100
AcDbArc
50
105.00000000000004
51
180
0
LINE
5
132
100
AcDbEntity
8
0
100
AcDbLine
10
39.352952387243697
20
-3.7092744665929214
30
0
11
40.517638656449165
21
-3.3971977213236979
31
0
0
ARC
5
133
100
AcDbEntity
8
0
100
AcDbCircle
10
40.000000566244118
20
-1.4653460687455502
30
0
40
2.0000000000000133
210
0
220
0
230
1
100
AcDbArc
50
285.00000000000006
51
360
0
LINE
5
134
100
AcDbEntity
8
0
100
AcDbLine
10
42.000000566244125
20
-1.4653460687455555
30
0
11
42.000000566244118
21
1.4653460687455651
31
0
0
ENDSEC
0
SECTION
2
OBJECTS
0
DICTIONARY
5
C
100
AcDbDictionary
3
ACAD_GROUP
350
D
3
ACAD_MLINESTYLE
350
17
0
DICTIONARY
5
D
100
AcDbDictionary
0
DICTIONARY
5
1A
330
C
100
AcDbDictionary
0
DICTIONARY
5
17
100
AcDbDictionary
0
ENDSEC
0
EOF
